<svg xmlns="http://www.w3.org/2000/svg" width="36" height="36" viewBox="0 0 36 36">
  <g id="Group_191" data-name="Group 191" transform="translate(0 -0.5)">
    <circle id="Oval" cx="18" cy="18" r="18" transform="translate(0 0.5)" fill="#e1306c"/>
    <path id="Shape" d="M4.982,16.9a6.21,6.21,0,0,1-2.057-.394,4.345,4.345,0,0,1-2.48-2.48,6.2,6.2,0,0,1-.394-2.057C.01,11.069,0,10.78,0,8.479s.01-2.59.053-3.5A6.21,6.21,0,0,1,.447,2.924a4.174,4.174,0,0,1,.976-1.5,4.136,4.136,0,0,1,1.5-.98A6.185,6.185,0,0,1,4.984.049C5.889.01,6.177,0,8.479,0s2.59.01,3.5.053a6.2,6.2,0,0,1,2.057.394,4.343,4.343,0,0,1,2.481,2.48,6.211,6.211,0,0,1,.393,2.056c.041.9.043,1.193.043,3.495s-.01,2.59-.049,3.494a6.21,6.21,0,0,1-.394,2.057,4.338,4.338,0,0,1-2.48,2.48,6.185,6.185,0,0,1-2.057.394c-.9.04-1.193.049-3.495.049S5.885,16.944,4.982,16.9Z" transform="translate(9.391 9.875)" fill="#fff"/>
    <path id="Shape-2" data-name="Shape" d="M0,4.355A4.355,4.355,0,1,1,4.355,8.71,4.356,4.356,0,0,1,0,4.355Z" transform="translate(13.514 13.999)" fill="#fff"/>
  </g>
</svg>
