<svg id="Group_189" data-name="Group 189" xmlns="http://www.w3.org/2000/svg" width="36" height="36" viewBox="0 0 36 36">
  <circle id="Oval" cx="18" cy="18" r="18" fill="#03a9f4"/>
  <path id="Path" d="M15.692,1.509a6.707,6.707,0,0,1-1.854.508A3.2,3.2,0,0,0,15.254.239a6.429,6.429,0,0,1-2.04.779,3.217,3.217,0,0,0-5.565,2.2,3.313,3.313,0,0,0,.075.734A9.106,9.106,0,0,1,1.093.586a3.218,3.218,0,0,0,.989,4.3,3.177,3.177,0,0,1-1.453-.4v.035A3.232,3.232,0,0,0,3.205,7.686a3.211,3.211,0,0,1-.843.106,2.844,2.844,0,0,1-.609-.055A3.248,3.248,0,0,0,4.759,9.978,6.464,6.464,0,0,1,.77,11.35,6.026,6.026,0,0,1,0,11.306,9.057,9.057,0,0,0,4.935,12.75,9.093,9.093,0,0,0,14.092,3.6c0-.142,0-.28-.012-.416A6.418,6.418,0,0,0,15.692,1.509Z" transform="translate(10.154 11.625)" fill="#fff"/>
</svg>
